<?xml version="1.0" encoding="UTF-8"?>
<!DOCTYPE svg PUBLIC "-//W3C//DTD SVG 1.1//EN" "http://www.w3.org/Graphics/SVG/1.1/DTD/svg11.dtd">
<svg xmlns="http://www.w3.org/2000/svg" version="1.1" width="800px" height="600px" style="shape-rendering:geometricPrecision; text-rendering:geometricPrecision; image-rendering:optimizeQuality; fill-rule:evenodd; clip-rule:evenodd" xmlns:xlink="http://www.w3.org/1999/xlink">
<g><path style="opacity:0.986" fill="#03dadc" d="M 252.5,387.5 C 239.728,363.742 234.561,338.408 237,311.5C 241.541,285.049 255.041,264.716 277.5,250.5C 278.043,250.44 278.376,250.107 278.5,249.5C 273.014,248.185 267.68,248.185 262.5,249.5C 242.901,251.209 227.735,260.209 217,276.5C 212.614,284.828 209.114,293.494 206.5,302.5C 197.544,265.699 174.211,248.199 136.5,250C 175.309,280.126 186.475,318.626 170,365.5C 167.442,372.282 164.609,378.949 161.5,385.5C 162.127,386.417 162.461,387.417 162.5,388.5C 160.883,387.962 159.216,387.629 157.5,387.5C 155.741,374.797 152.574,362.464 148,350.5C 136.732,330.241 125.066,310.241 113,290.5C 101.25,268.922 93.2503,245.922 89,221.5C 84.0519,172.622 102.219,135.122 143.5,109C 185.771,87.0229 228.104,87.0229 270.5,109C 321.595,143.95 337.429,191.117 318,250.5C 307.73,278.709 294.064,305.043 277,329.5C 265.714,347.187 258.881,366.52 256.5,387.5C 255.167,387.5 253.833,387.5 252.5,387.5 Z"/></g>
<g><path style="opacity:1" fill="#fefefe" d="M 200.5,156.5 C 228.465,156.63 241.965,170.63 241,198.5C 238.023,214.142 228.857,223.976 213.5,228C 191.02,230.343 177.187,220.509 172,198.5C 170.363,176.736 179.863,162.736 200.5,156.5 Z"/></g>
<g><path style="opacity:0.911" fill="#9ddedd" d="M 460.5,200.5 C 483.608,200.627 500.775,210.627 512,230.5C 520.346,258.64 511.18,278.807 484.5,291C 459.429,299.585 437.595,294.419 419,275.5C 404.474,252.624 406.974,231.791 426.5,213C 436.699,205.547 448.032,201.38 460.5,200.5 Z M 458.5,215.5 C 486.489,215.977 498.989,229.977 496,257.5C 488.471,274.661 475.305,282.161 456.5,280C 429.603,272.039 421.769,255.206 433,229.5C 439.813,221.515 448.313,216.848 458.5,215.5 Z"/></g>
<g><path style="opacity:0.888" fill="#9ddedd" d="M 374.5,202.5 C 380.5,202.5 386.5,202.5 392.5,202.5C 392.667,226.169 392.5,249.836 392,273.5C 391.353,283.143 386.519,289.643 377.5,293C 368.193,294.797 358.86,294.964 349.5,293.5C 349.5,288.833 349.5,284.167 349.5,279.5C 356.589,279.884 363.589,279.384 370.5,278C 372.049,276.786 373.215,275.286 374,273.5C 374.5,249.836 374.667,226.169 374.5,202.5 Z"/></g>
<g><path style="opacity:0.894" fill="#9ddedd" d="M 520.5,202.5 C 526.842,202.334 533.175,202.5 539.5,203C 547.709,215.248 555.542,227.748 563,240.5C 571.291,228.085 579.458,215.585 587.5,203C 593.859,202.169 600.193,202.336 606.5,203.5C 595.5,220.988 584.333,238.322 573,255.5C 572.5,268.162 572.333,280.829 572.5,293.5C 566.5,293.5 560.5,293.5 554.5,293.5C 554.667,281.162 554.5,268.829 554,256.5C 542.582,238.598 531.415,220.598 520.5,202.5 Z"/></g>
<g><path style="opacity:0.84" fill="#7a918f" d="M 647.5,237.5 C 667.782,235.464 679.115,244.464 681.5,264.5C 679.033,283.755 668.033,292.588 648.5,291C 634.898,287.069 627.565,278.069 626.5,264C 627.708,250.351 634.708,241.518 647.5,237.5 Z M 649.5,246.5 C 667.542,246.231 674.375,254.898 670,272.5C 662.691,283.478 653.525,285.311 642.5,278C 632.974,264.764 635.307,254.264 649.5,246.5 Z"/></g>
<g><path style="opacity:0.887" fill="#7a918f" d="M 692.5,238.5 C 703.5,238.5 714.5,238.5 725.5,238.5C 725.5,241.167 725.5,243.833 725.5,246.5C 717.5,246.5 709.5,246.5 701.5,246.5C 701.5,251.167 701.5,255.833 701.5,260.5C 708.167,260.5 714.833,260.5 721.5,260.5C 721.5,263.5 721.5,266.5 721.5,269.5C 714.833,269.5 708.167,269.5 701.5,269.5C 701.5,276.5 701.5,283.5 701.5,290.5C 698.5,290.5 695.5,290.5 692.5,290.5C 692.5,273.167 692.5,255.833 692.5,238.5 Z"/></g>
<g><path style="opacity:1" fill="#88edee" d="M 262.5,249.5 C 267.68,248.185 273.014,248.185 278.5,249.5C 278.376,250.107 278.043,250.44 277.5,250.5C 272.695,249.513 267.695,249.179 262.5,249.5 Z"/></g>
<g><path style="opacity:0.995" fill="#fefefe" d="M 262.5,249.5 C 267.695,249.179 272.695,249.513 277.5,250.5C 255.041,264.716 241.541,285.049 237,311.5C 234.561,338.408 239.728,363.742 252.5,387.5C 222.544,388.484 192.544,388.818 162.5,388.5C 162.461,387.417 162.127,386.417 161.5,385.5C 164.609,378.949 167.442,372.282 170,365.5C 186.475,318.626 175.309,280.126 136.5,250C 174.211,248.199 197.544,265.699 206.5,302.5C 209.114,293.494 212.614,284.828 217,276.5C 227.735,260.209 242.901,251.209 262.5,249.5 Z"/></g>
<g><path style="opacity:0.908" fill="#00b8ba" d="M 347.5,304.5 C 350.862,304.07 353.695,305.07 356,307.5C 366.644,320.978 377.477,334.312 388.5,347.5C 400.658,333.505 412.658,319.338 424.5,305C 426.167,304.333 427.833,304.333 429.5,305C 430.495,332.093 430.828,359.259 430.5,386.5C 425.5,386.5 420.5,386.5 415.5,386.5C 415.667,370.497 415.5,354.497 415,338.5C 407.167,347.667 399.333,356.833 391.5,366C 387.657,367.081 384.657,365.914 382.5,362.5C 376.189,354.355 369.689,346.355 363,338.5C 362.5,354.497 362.333,370.497 362.5,386.5C 357.5,386.5 352.5,386.5 347.5,386.5C 347.5,359.167 347.5,331.833 347.5,304.5 Z"/></g>
<g><path style="opacity:0.908" fill="#00b8ba" d="M 487.5,304.5 C 489.527,304.338 491.527,304.505 493.5,305C 510.333,322.5 527.167,340 544,357.5C 544.5,340.17 544.667,322.837 544.5,305.5C 549.43,305.197 554.263,305.531 559,306.5C 559.5,333.498 559.667,360.498 559.5,387.5C 557.076,387.808 554.743,387.474 552.5,386.5C 536.183,369.015 519.683,351.682 503,334.5C 502.5,351.83 502.333,369.163 502.5,386.5C 497.5,386.5 492.5,386.5 487.5,386.5C 487.5,359.167 487.5,331.833 487.5,304.5 Z"/></g>
<g><path style="opacity:0.892" fill="#00b8ba" d="M 693.5,304.5 C 707.321,303.262 718.321,308.095 726.5,319C 723.63,322.354 720.13,324.854 716,326.5C 708.49,317.332 699.324,315.166 688.5,320C 684.354,324.625 684.687,328.959 689.5,333C 699.32,337.41 708.986,342.077 718.5,347C 726.236,352.53 729.07,360.03 727,369.5C 725.958,374.382 723.458,378.382 719.5,381.5C 703.294,390.091 687.628,389.258 672.5,379C 669.388,376.561 667.055,373.561 665.5,370C 668.202,366.799 671.535,364.299 675.5,362.5C 678.651,365.15 681.651,367.984 684.5,371C 692.411,375.996 700.411,376.33 708.5,372C 713.296,367.752 713.63,363.252 709.5,358.5C 700.452,353.532 691.119,349.032 681.5,345C 670.18,337.733 667.347,327.9 673,315.5C 678.607,309.284 685.44,305.617 693.5,304.5 Z"/></g>
<g><path style="opacity:0.901" fill="#00b8ba" d="M 450.5,305.5 C 455.43,305.197 460.263,305.531 465,306.5C 465.5,333.165 465.667,359.831 465.5,386.5C 460.5,386.5 455.5,386.5 450.5,386.5C 450.5,359.5 450.5,332.5 450.5,305.5 Z"/></g>
<g><path style="opacity:0.905" fill="#00b8ba" d="M 579.5,305.5 C 592.865,305.223 606.199,305.723 619.5,307C 650.671,315.5 660.838,335 650,365.5C 642.835,375.992 633.002,382.492 620.5,385C 606.871,386.337 593.204,386.837 579.5,386.5C 579.5,359.5 579.5,332.5 579.5,305.5 Z M 594.5,318.5 C 602.53,318.478 610.53,318.978 618.5,320C 635.938,326.376 642.105,338.543 637,356.5C 632.383,365.765 624.883,371.265 614.5,373C 607.842,373.5 601.175,373.666 594.5,373.5C 594.5,355.167 594.5,336.833 594.5,318.5 Z"/></g>
<g><path style="opacity:0.935" fill="#78918f" d="M 165.5,394.5 C 178.694,397.077 192.027,398.41 205.5,398.5C 220.54,397.661 235.54,396.828 250.5,396C 252.91,397.562 254.244,399.729 254.5,402.5C 253.121,409.1 249.455,413.934 243.5,417C 236.794,420.013 229.794,422.013 222.5,423C 211.833,423.667 201.167,423.667 190.5,423C 178.906,422.116 169.072,417.616 161,409.5C 156.448,402.278 157.948,397.278 165.5,394.5 Z"/></g>
<g><path style="opacity:0.92" fill="#78918f" d="M 178.5,425.5 C 196.5,428.132 214.5,428.132 232.5,425.5C 236.167,425.833 238.167,427.833 238.5,431.5C 235.485,443.67 227.818,450.836 215.5,453C 202.524,455.666 191.024,452.832 181,444.5C 176.504,439.676 174.837,434.01 176,427.5C 176.995,426.934 177.828,426.267 178.5,425.5 Z"/></g>
</svg>
