<?xml version="1.0" encoding="UTF-8"?>
<!DOCTYPE svg PUBLIC "-//W3C//DTD SVG 1.1//EN" "http://www.w3.org/Graphics/SVG/1.1/DTD/svg11.dtd">
<svg xmlns="http://www.w3.org/2000/svg" version="1.1" width="100px" height="75px" style="shape-rendering:geometricPrecision; text-rendering:geometricPrecision; image-rendering:optimizeQuality; fill-rule:evenodd; clip-rule:evenodd" xmlns:xlink="http://www.w3.org/1999/xlink">
<g><path style="opacity:0.718" fill="#c9a23f" d="M 59.5,10.5 C 58.1667,10.5 57.5,11.1667 57.5,12.5C 58.1667,13.5 58.8333,14.5 59.5,15.5C 57.9553,14.4196 56.4553,14.4196 55,15.5C 53.9701,15.1639 53.4701,14.4972 53.5,13.5C 54.6935,13.0296 55.3601,12.0296 55.5,10.5C 55.7142,8.05819 54.7142,6.39152 52.5,5.5C 49.2722,3.97361 46.6055,4.64028 44.5,7.5C 43.7784,7.91753 43.2784,8.5842 43,9.5C 42.7216,8.5842 42.2216,7.91753 41.5,7.5C 41.9156,5.24753 43.249,3.74753 45.5,3C 52.6308,1.06359 57.2974,3.56359 59.5,10.5 Z"/></g>
<g><path style="opacity:0.376" fill="#eac840" d="M 52.5,5.5 C 52.1667,6.16667 51.8333,6.83333 51.5,7.5C 49.1417,7.2525 47.1417,7.91917 45.5,9.5C 45.6716,8.50838 45.3382,7.84171 44.5,7.5C 46.6055,4.64028 49.2722,3.97361 52.5,5.5 Z"/></g>
<g><path style="opacity:1" fill="#e1b131" d="M 52.5,5.5 C 54.7142,6.39152 55.7142,8.05819 55.5,10.5C 55.3601,12.0296 54.6935,13.0296 53.5,13.5C 53.7415,11.5438 53.0749,9.54383 51.5,7.5C 51.8333,6.83333 52.1667,6.16667 52.5,5.5 Z"/></g>
<g><path style="opacity:1" fill="#e0b536" d="M 41.5,7.5 C 42.2216,7.91753 42.7216,8.5842 43,9.5C 43.2784,8.5842 43.7784,7.91753 44.5,7.5C 45.3382,7.84171 45.6716,8.50838 45.5,9.5C 46.9798,13.6763 45.6465,15.343 41.5,14.5C 40.3586,12.5487 40.3586,10.5487 41.5,8.5C 41.5,8.16667 41.5,7.83333 41.5,7.5 Z"/></g>
<g><path style="opacity:1" fill="#c49432" d="M 41.5,8.5 C 40.3586,10.5487 40.3586,12.5487 41.5,14.5C 40.7095,15.4013 39.7095,16.0679 38.5,16.5C 38.741,13.001 37.9076,12.6677 36,15.5C 34.8202,20.4907 36.6536,23.4907 41.5,24.5C 40.5946,25.7024 40.5946,27.0357 41.5,28.5C 33.6216,25.5501 31.4549,20.2167 35,12.5C 37.1322,11.0719 39.2989,9.73858 41.5,8.5 Z"/></g>
<g><path style="opacity:1" fill="#e0a421" d="M 38.5,16.5 C 38.1201,18.698 38.7868,20.3646 40.5,21.5C 41.3984,22.1577 42.3984,22.8243 43.5,23.5C 43.0431,24.2975 42.3764,24.6309 41.5,24.5C 36.6536,23.4907 34.8202,20.4907 36,15.5C 37.9076,12.6677 38.741,13.001 38.5,16.5 Z"/></g>
<g><path style="opacity:1" fill="#d88d0c" d="M 60.5,13.5 C 63.6967,15.8029 64.3633,18.8029 62.5,22.5C 62.1667,22.5 61.8333,22.5 61.5,22.5C 61.6323,19.4299 61.299,16.4299 60.5,13.5 Z"/></g>
<g><path style="opacity:0.629" fill="#b98026" d="M 59.5,10.5 C 62.2919,10.4521 64.1253,11.7854 65,14.5C 65.8007,17.367 65.6341,20.0336 64.5,22.5C 64.0623,21.4937 63.3957,21.4937 62.5,22.5C 64.3633,18.8029 63.6967,15.8029 60.5,13.5C 59.791,12.596 58.791,12.2627 57.5,12.5C 57.5,11.1667 58.1667,10.5 59.5,10.5 Z"/></g>
<g><path style="opacity:0.576" fill="#dbbb45" d="M 51.5,19.5 C 50.8333,19.5 50.5,19.1667 50.5,18.5C 50.5,17.8333 50.1667,17.5 49.5,17.5C 49.1667,16.8333 48.8333,16.1667 48.5,15.5C 48.3691,14.6236 48.7025,13.9569 49.5,13.5C 50.8333,15.5 52.5,17.1667 54.5,18.5C 53.675,19.3857 52.675,19.719 51.5,19.5 Z"/></g>
<g><path style="opacity:0.6" fill="#cbb24d" d="M 48.5,15.5 C 48.8333,16.1667 49.1667,16.8333 49.5,17.5C 48.4427,18.206 48.7761,18.5393 50.5,18.5C 50.5,19.1667 50.8333,19.5 51.5,19.5C 51.3718,21.0898 50.7051,22.4231 49.5,23.5C 48.1667,21.5 46.5,19.8333 44.5,18.5C 45.8518,17.4756 47.1851,16.4756 48.5,15.5 Z"/></g>
<g><path style="opacity:0.98" fill="#d2901a" d="M 57.5,12.5 C 58.791,12.2627 59.791,12.596 60.5,13.5C 61.299,16.4299 61.6323,19.4299 61.5,22.5C 61.1583,23.3382 60.4916,23.6716 59.5,23.5C 59.1583,22.6618 58.4916,22.3284 57.5,22.5C 60.4848,20.9016 61.1514,18.5682 59.5,15.5C 58.8333,14.5 58.1667,13.5 57.5,12.5 Z"/></g>
<g><path style="opacity:1" fill="#d4b041" d="M 40.5,21.5 C 42.4672,21.2606 44.3005,21.5939 46,22.5C 45.2075,24.5005 45.3741,26.5005 46.5,28.5C 44.3369,27.7194 44.0036,28.5528 45.5,31C 47.4727,31.4955 49.4727,31.6621 51.5,31.5C 52.1667,32.1667 52.8333,32.8333 53.5,33.5C 47.7655,35.7058 43.7655,34.0391 41.5,28.5C 40.5946,27.0357 40.5946,25.7024 41.5,24.5C 42.3764,24.6309 43.0431,24.2975 43.5,23.5C 42.3984,22.8243 41.3984,22.1577 40.5,21.5 Z"/></g>
<g><path style="opacity:1" fill="#deac2f" d="M 57.5,22.5 C 58.4916,22.3284 59.1583,22.6618 59.5,23.5C 59.5,23.8333 59.5,24.1667 59.5,24.5C 58.1667,24.5 56.8333,24.5 55.5,24.5C 56.0922,27.6305 55.0922,29.9639 52.5,31.5C 52.4173,29.4305 51.4173,29.0972 49.5,30.5C 48.2867,30.2528 47.62,29.5862 47.5,28.5C 49.368,29.7569 51.0347,29.4236 52.5,27.5C 52.5693,25.7219 52.9026,23.8886 53.5,22C 54.9285,21.4209 56.2618,21.5876 57.5,22.5 Z"/></g>
<g><path style="opacity:0.478" fill="#c28725" d="M 64.5,22.5 C 63.7298,24.9354 62.0632,26.2687 59.5,26.5C 58.4937,26.0623 58.4937,25.3957 59.5,24.5C 59.5,24.1667 59.5,23.8333 59.5,23.5C 60.4916,23.6716 61.1583,23.3382 61.5,22.5C 61.8333,22.5 62.1667,22.5 62.5,22.5C 63.3957,21.4937 64.0623,21.4937 64.5,22.5 Z"/></g>
<g><path style="opacity:1" fill="#f7d039" d="M 46.5,28.5 C 46.8333,28.5 47.1667,28.5 47.5,28.5C 47.62,29.5862 48.2867,30.2528 49.5,30.5C 51.4173,29.0972 52.4173,29.4305 52.5,31.5C 52.1667,31.5 51.8333,31.5 51.5,31.5C 49.4727,31.6621 47.4727,31.4955 45.5,31C 44.0036,28.5528 44.3369,27.7194 46.5,28.5 Z"/></g>
<g><path style="opacity:0.463" fill="#bd953b" d="M 59.5,24.5 C 58.4937,25.3957 58.4937,26.0623 59.5,26.5C 58.2003,29.4323 56.2003,31.7656 53.5,33.5C 52.8333,32.8333 52.1667,32.1667 51.5,31.5C 51.8333,31.5 52.1667,31.5 52.5,31.5C 55.0922,29.9639 56.0922,27.6305 55.5,24.5C 56.8333,24.5 58.1667,24.5 59.5,24.5 Z"/></g>
<g><path style="opacity:0.625" fill="#e49f14" d="M 20.5,44.5 C 20.5,46.8333 20.5,49.1667 20.5,51.5C 19.8826,51.6107 19.3826,51.944 19,52.5C 18.8333,51.1667 18.6667,49.8333 18.5,48.5C 18.5854,46.6672 19.2521,45.3339 20.5,44.5 Z"/></g>
<g><path style="opacity:0.576" fill="#c2aa50" d="M 55.5,44.5 C 54.6618,44.8417 54.3284,45.5084 54.5,46.5C 53.5416,46.0472 52.7083,45.3805 52,44.5C 51.1482,45.5707 50.3149,46.5707 49.5,47.5C 49.5912,45.3023 48.9245,44.9689 47.5,46.5C 49.3852,42.3115 52.0519,41.6449 55.5,44.5 Z"/></g>
<g><path style="opacity:0.706" fill="#c18b31" d="M 77.5,43.5 C 77.5,44.1667 77.5,44.8333 77.5,45.5C 75.631,47.6353 74.9644,50.3019 75.5,53.5C 74.5,53.5 73.5,53.5 72.5,53.5C 72.5,50.8333 72.5,48.1667 72.5,45.5C 71.325,45.719 70.325,45.3857 69.5,44.5C 72.0865,43.52 74.7531,43.1866 77.5,43.5 Z"/></g>
<g><path style="opacity:0.898" fill="#d1810a" d="M 4.5,44.5 C 4.5,45.5 4.5,46.5 4.5,47.5C 5.16667,48.1667 5.83333,48.8333 6.5,49.5C 5.05684,50.3351 4.05684,51.6684 3.5,53.5C 2.51998,50.9135 2.18665,48.2469 2.5,45.5C 2.84171,44.6618 3.50838,44.3284 4.5,44.5 Z"/></g>
<g><path style="opacity:0.996" fill="#c07f1f" d="M 6.5,49.5 C 5.83333,48.8333 5.16667,48.1667 4.5,47.5C 6.98452,46.7399 6.98452,45.7399 4.5,44.5C 3.50838,44.3284 2.84171,44.6618 2.5,45.5C 1.95691,45.44 1.62358,45.1067 1.5,44.5C 3.76488,43.3526 6.09821,43.1859 8.5,44C 9.90851,46.6089 9.24185,48.4422 6.5,49.5 Z"/></g>
<g><path style="opacity:0.487" fill="#bb8220" d="M 13.5,43.5 C 13.5,46.8333 13.5,50.1667 13.5,53.5C 11.8326,50.7385 10.8326,47.5719 10.5,44C 11.448,43.5172 12.448,43.3505 13.5,43.5 Z"/></g>
<g><path style="opacity:0.196" fill="#bc9d47" d="M 37.5,46.5 C 36.6365,45.537 35.9698,45.537 35.5,46.5C 36.2458,47.7362 36.5792,49.0695 36.5,50.5C 35.8423,51.3984 35.1757,52.3984 34.5,53.5C 34.1667,53.1667 33.8333,52.8333 33.5,52.5C 34.7946,49.6341 34.7946,46.8007 33.5,44C 35.9449,43.0902 37.2782,43.9236 37.5,46.5 Z"/></g>
<g><path style="opacity:0.6" fill="#eeb726" d="M 59.5,45.5 C 60.2389,45.369 60.9056,45.5357 61.5,46C 60.8288,46.9862 60.8288,48.1529 61.5,49.5C 61.762,50.9778 61.4287,52.3112 60.5,53.5C 59.52,50.9135 59.1866,48.2469 59.5,45.5 Z"/></g>
<g><path style="opacity:0.094" fill="#8a704c" d="M 77.5,43.5 C 78.5,43.5 79.5,43.5 80.5,43.5C 80.5,46.8333 80.5,50.1667 80.5,53.5C 79.6805,50.6946 79.1805,47.6946 79,44.5C 78.6174,45.056 78.1174,45.3893 77.5,45.5C 77.5,44.8333 77.5,44.1667 77.5,43.5 Z"/></g>
<g><path style="opacity:0.992" fill="#cda035" d="M 64.5,47.5 C 62.3023,47.4088 61.9689,48.0755 63.5,49.5C 62.8333,49.5 62.1667,49.5 61.5,49.5C 60.8288,48.1529 60.8288,46.9862 61.5,46C 60.9056,45.5357 60.2389,45.369 59.5,45.5C 58.3857,43.6469 59.0524,43.1469 61.5,44C 62.7101,45.0391 63.7101,46.2058 64.5,47.5 Z"/></g>
<g><path style="opacity:0.537" fill="#b28739" d="M 13.5,43.5 C 14.4345,44.5676 14.7678,45.901 14.5,47.5C 15.5,47.5 16.5,47.5 17.5,47.5C 17.5,46.1667 17.5,44.8333 17.5,43.5C 18.791,43.2627 19.791,43.596 20.5,44.5C 19.2521,45.3339 18.5854,46.6672 18.5,48.5C 18.6667,49.8333 18.8333,51.1667 19,52.5C 19.3826,51.944 19.8826,51.6107 20.5,51.5C 20.6107,52.1174 20.944,52.6174 21.5,53C 20.2068,53.49 18.8734,53.6567 17.5,53.5C 17.5,52.1667 17.5,50.8333 17.5,49.5C 16.5,49.5 15.5,49.5 14.5,49.5C 14.7678,51.099 14.4345,52.4324 13.5,53.5C 13.5,50.1667 13.5,46.8333 13.5,43.5 Z"/></g>
<g><path style="opacity:0.78" fill="#d0b347" d="M 40.5,51.5 C 40.2178,50.2223 39.5511,49.2223 38.5,48.5C 40.3725,47.1365 42.0392,45.4699 43.5,43.5C 44.8079,46.7063 45.4746,50.0396 45.5,53.5C 44.5,53.5 43.5,53.5 42.5,53.5C 42.6567,52.1266 42.49,50.7932 42,49.5C 41.7216,50.4158 41.2216,51.0825 40.5,51.5 Z"/></g>
<g><path style="opacity:0.804" fill="#ce9929" d="M 63.5,49.5 C 61.9689,48.0755 62.3023,47.4088 64.5,47.5C 65.1174,47.6107 65.6174,47.944 66,48.5C 66.3333,46.8333 66.6667,45.1667 67,43.5C 67.6667,46.8333 67.6667,50.1667 67,53.5C 65.3732,52.4677 64.2066,51.1344 63.5,49.5 Z"/></g>
<g><path style="opacity:0.918" fill="#c07d1b" d="M 94.5,44.5 C 95.9641,47.2621 97.2975,50.0954 98.5,53C 96.6476,53.7726 95.3143,53.2726 94.5,51.5C 94.6716,50.5084 94.3382,49.8417 93.5,49.5C 93.5,49.1667 93.5,48.8333 93.5,48.5C 91.9219,46.6253 92.2552,45.2919 94.5,44.5 Z"/></g>
<g><path style="opacity:0.631" fill="#e0b83b" d="M 37.5,46.5 C 38.3382,46.8417 38.6716,47.5084 38.5,48.5C 39.5511,49.2223 40.2178,50.2223 40.5,51.5C 40.2172,52.2891 39.7172,52.9558 39,53.5C 38.1482,52.4293 37.3149,51.4293 36.5,50.5C 36.5792,49.0695 36.2458,47.7362 35.5,46.5C 35.9698,45.537 36.6365,45.537 37.5,46.5 Z"/></g>
<g><path style="opacity:0.827" fill="#bc7c1e" d="M 80.5,43.5 C 86.5899,42.6308 88.2566,44.6308 85.5,49.5C 85.4142,50.4959 85.7476,51.3292 86.5,52C 85.9056,52.4643 85.2389,52.631 84.5,52.5C 84.2172,51.7109 83.7172,51.0442 83,50.5C 82.7645,52.1193 81.9311,53.1193 80.5,53.5C 80.5,50.1667 80.5,46.8333 80.5,43.5 Z M 82.5,45.5 C 84.337,45.6395 84.6704,46.3061 83.5,47.5C 82.7025,47.0431 82.3691,46.3764 82.5,45.5 Z"/></g>
<g><path style="opacity:0.906" fill="#dda426" d="M 25.5,50.5 C 25.5,51.8333 24.8333,52.5 23.5,52.5C 23.7261,49.7508 23.3928,47.0841 22.5,44.5C 23.325,43.6143 24.325,43.281 25.5,43.5C 25.5,45.8333 25.5,48.1667 25.5,50.5 Z"/></g>
<g><path style="opacity:0.584" fill="#bf9938" d="M 23.5,52.5 C 24.8333,52.5 25.5,51.8333 25.5,50.5C 26.4584,50.9528 27.2917,51.6195 28,52.5C 28.3333,52.1667 28.6667,51.8333 29,51.5C 29.1816,48.7737 29.6816,46.1071 30.5,43.5C 31.6548,46.4459 31.8214,49.4459 31,52.5C 28.3953,53.8143 25.8953,53.8143 23.5,52.5 Z"/></g>
<g><path style="opacity:0.886" fill="#d8b340" d="M 55.5,44.5 C 56.9931,45.3121 57.6598,46.6455 57.5,48.5C 57.6598,50.3545 56.9931,51.6879 55.5,52.5C 54.6618,52.1583 54.3284,51.4916 54.5,50.5C 54.5,49.1667 54.5,47.8333 54.5,46.5C 54.3284,45.5084 54.6618,44.8417 55.5,44.5 Z"/></g>
<g><path style="opacity:0.647" fill="#b47a23" d="M 94.5,44.5 C 92.2552,45.2919 91.9219,46.6253 93.5,48.5C 90.895,50.1704 90.895,50.5037 93.5,49.5C 94.3382,49.8417 94.6716,50.5084 94.5,51.5C 92.1743,52.1511 89.8409,52.8178 87.5,53.5C 86.2739,53.4805 85.2739,53.1471 84.5,52.5C 85.2389,52.631 85.9056,52.4643 86.5,52C 85.7476,51.3292 85.4142,50.4959 85.5,49.5C 86.7899,50.0577 87.6232,51.0577 88,52.5C 89.8605,50.1123 91.1939,47.4456 92,44.5C 92.9772,43.2264 93.8106,43.2264 94.5,44.5 Z"/></g>
<g><path style="opacity:0.694" fill="#d8bd4a" d="M 49.5,47.5 C 49.8241,51.9145 51.4908,52.9145 54.5,50.5C 54.3284,51.4916 54.6618,52.1583 55.5,52.5C 49.7655,54.7506 47.0988,52.7506 47.5,46.5C 48.9245,44.9689 49.5912,45.3023 49.5,47.5 Z"/></g>
<g><path style="opacity:0.463" fill="#ab8537" d="M 14.5,62.5 C 15.404,63.209 15.7373,64.209 15.5,65.5C 18.9103,65.3838 20.2436,67.0504 19.5,70.5C 17.4727,70.6621 15.4727,70.4955 13.5,70C 14.5762,68.2739 14.7429,66.4406 14,64.5C 13.8333,67.3333 12.3333,68.8333 9.5,69C 9.83333,69.3333 10.1667,69.6667 10.5,70C 9.5,70.6667 8.5,70.6667 7.5,70C 8.83333,68 8.83333,66 7.5,64C 10.0356,63.8138 12.369,63.3138 14.5,62.5 Z M 9.5,64.5 C 11.337,64.6395 11.6704,65.3061 10.5,66.5C 9.70245,66.0431 9.36912,65.3764 9.5,64.5 Z M 16.5,66.5 C 17.7759,67.3864 17.7759,68.3864 16.5,69.5C 15.4376,68.5754 15.4376,67.5754 16.5,66.5 Z"/></g>
<g><path style="opacity:0.673" fill="#a17e35" d="M 27.5,62.5 C 28.404,63.209 28.7373,64.209 28.5,65.5C 31.999,65.259 32.3323,66.0924 29.5,68C 30.1667,68.6667 30.8333,69.3333 31.5,70C 29.8333,70.6667 28.1667,70.6667 26.5,70C 27.2301,67.3986 27.5634,64.8986 27.5,62.5 Z"/></g>
<g><path style="opacity:0.298" fill="#a9853b" d="M 71.5,62.5 C 72.7479,63.3339 73.4146,64.6672 73.5,66.5C 73.1667,67.8333 72.8333,69.1667 72.5,70.5C 71.52,67.9135 71.1866,65.2469 71.5,62.5 Z"/></g>
<g><path style="opacity:0.298" fill="#b08937" d="M 89.5,62.5 C 91.369,64.6353 92.0356,67.3019 91.5,70.5C 89.8333,70.5 88.1667,70.5 86.5,70.5C 86.5,68.8333 86.5,67.1667 86.5,65.5C 87.5,65.5 88.5,65.5 89.5,65.5C 89.5,64.5 89.5,63.5 89.5,62.5 Z M 88.5,66.5 C 89.5735,67.2506 89.7401,68.2506 89,69.5C 87.2716,68.6477 87.105,67.6477 88.5,66.5 Z"/></g>
<g><path style="opacity:0.086" fill="#a6833c" d="M 56.5,62.5 C 57.404,63.209 57.7373,64.209 57.5,65.5C 60.9103,65.3838 62.2436,67.0504 61.5,70.5C 59.4727,70.6621 57.4727,70.4955 55.5,70C 56.5762,68.2739 56.7429,66.4406 56,64.5C 55,65.8333 54,65.8333 53,64.5C 52.2571,66.4406 52.4238,68.2739 53.5,70C 50.1939,70.9306 49.5273,69.9306 51.5,67C 51.3333,66.1667 51.1667,65.3333 51,64.5C 50.3457,65.6956 49.8457,65.6956 49.5,64.5C 51.9688,63.8319 54.3021,63.1653 56.5,62.5 Z M 58.5,66.5 C 59.7759,67.3864 59.7759,68.3864 58.5,69.5C 57.4376,68.5754 57.4376,67.5754 58.5,66.5 Z"/></g>
<g><path style="opacity:0.658" fill="#9b7d3f" d="M 78.5,70.5 C 78.5,69.1667 78.5,67.8333 78.5,66.5C 80.717,65.6314 83.0504,65.298 85.5,65.5C 85.5,67.1667 85.5,68.8333 85.5,70.5C 83.1667,70.5 80.8333,70.5 78.5,70.5 Z M 82.5,66.5 C 83.7759,67.3864 83.7759,68.3864 82.5,69.5C 81.4376,68.5754 81.4376,67.5754 82.5,66.5 Z"/></g>
<g><path style="opacity:0.553" fill="#ac8536" d="M 20.5,65.5 C 22.045,66.2297 22.8784,67.563 23,69.5C 24.4578,64.4055 25.2912,64.7389 25.5,70.5C 23.8333,70.5 22.1667,70.5 20.5,70.5C 20.5,68.8333 20.5,67.1667 20.5,65.5 Z"/></g>
<g><path style="opacity:0.529" fill="#ab863b" d="M 38.5,64.5 C 39.7562,64.4614 40.7562,64.9614 41.5,66C 40.2889,67.1131 40.2889,68.2798 41.5,69.5C 40.675,70.3857 39.675,70.719 38.5,70.5C 38.1667,65.1667 37.8333,65.1667 37.5,70.5C 35.8333,70.5 34.1667,70.5 32.5,70.5C 32.5,68.8333 32.5,67.1667 32.5,65.5C 34.7354,65.7947 36.7354,65.4614 38.5,64.5 Z"/></g>
<g><path style="opacity:0.639" fill="#a2813e" d="M 42.5,68.5 C 44.4646,68.9483 44.7979,69.9483 43.5,71.5C 42.6143,70.675 42.281,69.675 42.5,68.5 Z"/></g>
<g><path style="opacity:0.663" fill="#ad8638" d="M 67.5,63.5 C 69.1408,65.2029 70.1408,67.3695 70.5,70C 67.854,70.4974 65.1873,70.6641 62.5,70.5C 62.5,68.8333 62.5,67.1667 62.5,65.5C 63.8333,65.5 65.1667,65.5 66.5,65.5C 66.238,66.9778 66.5713,68.3112 67.5,69.5C 67.8333,69 68.1667,68.5 68.5,68C 67.8524,66.5603 67.5191,65.0603 67.5,63.5 Z"/></g>
<g><path style="opacity:0.196" fill="#b28831" d="M 78.5,66.5 C 78.5,67.8333 78.5,69.1667 78.5,70.5C 77.1667,70.5 75.8333,70.5 74.5,70.5C 74.5,68.8333 74.5,67.1667 74.5,65.5C 76.099,65.2322 77.4324,65.5655 78.5,66.5 Z"/></g>
</svg>
